<svg width="32" height="32" viewBox="0 0 32 32" fill="none" xmlns="http://www.w3.org/2000/svg">
<path d="M26.6669 20C26.6669 22.4851 26.6669 23.7275 26.2609 24.7076C25.7196 26.0144 24.6813 27.0527 23.3745 27.594C22.3944 28 21.1519 28 18.6669 28H14.6669C9.63863 28 7.12444 28 5.56235 26.4379C4.00024 24.8757 4.00027 22.3616 4.00031 17.3332L4.00039 9.33311C4.00041 6.38771 6.38815 4 9.33355 4" stroke="white" stroke-width="2" stroke-linecap="round" stroke-linejoin="round"/>
<path d="M13.3336 11.333L13.9119 16.6249C13.9671 17.0673 14.239 17.4529 14.6486 17.6289C15.5632 18.0217 17.2763 18.6663 18.667 18.6663C20.0578 18.6663 21.7708 18.0217 22.6855 17.6289C23.0951 17.4529 23.367 17.0673 23.4222 16.6249L24.0003 11.333M27.3336 9.99967V15.0253M18.667 5.33301L9.33368 9.33301L18.667 13.333L28.0003 9.33301L18.667 5.33301Z" stroke="white" stroke-width="2" stroke-linecap="round" stroke-linejoin="round"/>
</svg>
