<svg width="20" height="20" viewBox="0 0 20 20" fill="none" xmlns="http://www.w3.org/2000/svg">
<path d="M10.387 0.665602C10.2747 0.564611 10.1364 0.509766 9.99407 0.509766C9.85172 0.509766 9.71345 0.564611 9.60118 0.665602L0.509766 8.84542L1.29617 9.993L2.40777 8.99288V18.0297C2.40843 18.4167 2.54196 18.7876 2.77911 19.0613C3.01626 19.3349 3.33772 19.489 3.6731 19.4898H16.3264C16.6618 19.489 16.9833 19.3349 17.2204 19.0613C17.4576 18.7876 17.5911 18.4167 17.5918 18.0297V8.99945L18.7034 9.99957L19.4898 8.85199L10.387 0.665602ZM11.2651 18.0297H8.73443V12.1896H11.2651V18.0297ZM12.5304 18.0297V12.1896C12.5304 11.8024 12.3971 11.431 12.1598 11.1572C11.9225 10.8834 11.6007 10.7296 11.2651 10.7296H8.73443C8.39884 10.7296 8.077 10.8834 7.83971 11.1572C7.60241 11.431 7.4691 11.8024 7.4691 12.1896V18.0297H3.6731V7.85479L9.99977 2.16797L16.3264 7.86209V18.0297H12.5304Z" fill="black"/>
</svg>
