<svg width="21" height="21" viewBox="0 0 21 21" fill="none" xmlns="http://www.w3.org/2000/svg">
<path d="M12.6777 5.46045V8.88357L13.8752 9.6367C13.9185 9.64599 13.9632 9.64599 14.0065 9.6367L19.1552 6.16545C19.1515 5.99698 19.0898 5.83494 18.9807 5.70655C18.8715 5.57817 18.7215 5.49127 18.5559 5.46045H12.6777Z" fill="#0072C6"/>
<path d="M12.6777 10.1606L13.7696 10.9106C13.8207 10.9418 13.8794 10.9584 13.9393 10.9584C13.9992 10.9584 14.0579 10.9418 14.109 10.9106C13.9215 11.0237 19.1546 7.54932 19.1546 7.54932V13.8406C19.1682 13.968 19.1539 14.097 19.1125 14.2183C19.0711 14.3397 19.0037 14.4505 18.915 14.5431C18.8263 14.6356 18.7184 14.7077 18.5989 14.7542C18.4795 14.8008 18.3513 14.8206 18.2233 14.8124H12.6771L12.6777 10.1606ZM7.02521 8.58244C6.84381 8.58164 6.66556 8.62988 6.50933 8.72208C6.3531 8.81428 6.2247 8.947 6.13771 9.10619C5.90025 9.52828 5.78633 10.0087 5.80896 10.4924C5.78429 10.9752 5.89837 11.455 6.13771 11.8749C6.22428 12.0276 6.34951 12.1548 6.50081 12.2438C6.65212 12.3327 6.82417 12.3803 6.99968 12.3817C7.17519 12.3831 7.34798 12.3383 7.50068 12.2517C7.65338 12.1652 7.78061 12.04 7.86959 11.8887C8.10679 11.4708 8.21854 10.9934 8.19146 10.5137C8.21854 10.0189 8.11052 9.52613 7.87896 9.08807C7.79599 8.9342 7.67268 8.80584 7.52227 8.71676C7.37185 8.62768 7.20002 8.58125 7.02521 8.58244Z" fill="#0072C6"/>
<path d="M1.8457 3.72188V17.1138L12.0332 19.25V1.75L1.8457 3.72188ZM8.6632 12.6819C8.47267 12.9506 8.21928 13.1686 7.92513 13.3168C7.63099 13.4651 7.30504 13.5391 6.9757 13.5325C6.65467 13.5382 6.33701 13.4663 6.04973 13.3229C5.76246 13.1795 5.51408 12.9688 5.3257 12.7087C4.87899 12.085 4.65551 11.3289 4.69133 10.5625C4.65342 9.75854 4.88094 8.96441 5.33883 8.3025C5.53192 8.02883 5.78932 7.8068 6.08838 7.65597C6.38743 7.50514 6.71897 7.43011 7.05383 7.4375C7.3725 7.43132 7.68783 7.50335 7.97221 7.64729C8.25659 7.79122 8.50136 8.00267 8.68508 8.26312C9.12733 8.90042 9.34701 9.66579 9.31008 10.4406C9.34919 11.2388 9.12161 12.0273 8.6632 12.6819Z" fill="#0072C6"/>
</svg>
